<mxfile host="app.diagrams.net" modified="2023-09-01T01:05:37.221Z" agent="Mozilla/5.0 (X11; Linux x86_64) AppleWebKit/537.36 (KHTML, like Gecko) Chrome/116.0.0.0 Safari/537.36" etag="R3OsyxTEM1o4U4l6BLMp" version="21.7.1" type="github">
  <diagram id="Co5nbBrR2NN09ta7Q-Ko" name="Page-1">
    <mxGraphModel dx="1647" dy="876" grid="1" gridSize="10" guides="1" tooltips="1" connect="1" arrows="1" fold="1" page="1" pageScale="1" pageWidth="850" pageHeight="1100" math="0" shadow="0">
      <root>
        <mxCell id="0" />
        <mxCell id="1" parent="0" />
        <mxCell id="hwpAo5bEhznhClHGtBJG-10" style="edgeStyle=orthogonalEdgeStyle;rounded=0;orthogonalLoop=1;jettySize=auto;html=1;exitX=0;exitY=0.5;exitDx=0;exitDy=0;exitPerimeter=0;entryX=1;entryY=0.5;entryDx=0;entryDy=0;fontSize=16;" parent="1" source="hwpAo5bEhznhClHGtBJG-5" target="hwpAo5bEhznhClHGtBJG-1" edge="1">
          <mxGeometry relative="1" as="geometry" />
        </mxCell>
        <mxCell id="hwpAo5bEhznhClHGtBJG-5" value="" style="shape=cylinder3;whiteSpace=wrap;html=1;boundedLbl=1;backgroundOutline=1;size=15;" parent="1" vertex="1">
          <mxGeometry x="1118.75" y="385.21999999999997" width="100" height="80" as="geometry" />
        </mxCell>
        <mxCell id="hwpAo5bEhznhClHGtBJG-7" value="&lt;font style=&quot;font-size: 16px;&quot;&gt;Write the question &lt;br&gt;that is &lt;br&gt;being answered&lt;/font&gt;" style="ellipse;shape=cloud;whiteSpace=wrap;html=1;fillColor=#ffe6cc;strokeColor=#d79b00;" parent="1" vertex="1">
          <mxGeometry x="360" y="360" width="230" height="130.45" as="geometry" />
        </mxCell>
        <mxCell id="hwpAo5bEhznhClHGtBJG-17" style="edgeStyle=orthogonalEdgeStyle;rounded=0;orthogonalLoop=1;jettySize=auto;html=1;exitX=0;exitY=0.5;exitDx=0;exitDy=0;entryX=0.875;entryY=0.5;entryDx=0;entryDy=0;entryPerimeter=0;fontSize=16;endArrow=none;endFill=0;" parent="1" source="hwpAo5bEhznhClHGtBJG-8" target="hwpAo5bEhznhClHGtBJG-7" edge="1">
          <mxGeometry relative="1" as="geometry">
            <mxPoint x="581.25" y="424.9949999999999" as="targetPoint" />
          </mxGeometry>
        </mxCell>
        <mxCell id="hwpAo5bEhznhClHGtBJG-8" value="&lt;font style=&quot;font-size: 16px;&quot;&gt;Describe the visualization&lt;/font&gt;" style="rounded=1;whiteSpace=wrap;html=1;" parent="1" vertex="1">
          <mxGeometry x="685" y="395.21999999999997" width="120" height="60" as="geometry" />
        </mxCell>
        <mxCell id="hwpAo5bEhznhClHGtBJG-11" value="&lt;font style=&quot;font-size: 16px;&quot;&gt;&lt;b&gt;Data base 1&lt;/b&gt;&lt;/font&gt;" style="text;html=1;strokeColor=none;fillColor=none;align=center;verticalAlign=middle;whiteSpace=wrap;rounded=0;" parent="1" vertex="1">
          <mxGeometry x="1118.75" y="429.77" width="100" height="30" as="geometry" />
        </mxCell>
        <mxCell id="hwpAo5bEhznhClHGtBJG-12" value="" style="group" parent="1" connectable="0" vertex="1">
          <mxGeometry x="873.75" y="374.77" width="150" height="140" as="geometry" />
        </mxCell>
        <mxCell id="hwpAo5bEhznhClHGtBJG-4" value="" style="group" parent="hwpAo5bEhznhClHGtBJG-12" connectable="0" vertex="1">
          <mxGeometry x="25" width="100" height="110" as="geometry" />
        </mxCell>
        <mxCell id="hwpAo5bEhznhClHGtBJG-1" value="" style="ellipse;whiteSpace=wrap;html=1;aspect=fixed;" parent="hwpAo5bEhznhClHGtBJG-4" vertex="1">
          <mxGeometry width="100" height="100" as="geometry" />
        </mxCell>
        <mxCell id="hwpAo5bEhznhClHGtBJG-3" value="" style="ellipse;whiteSpace=wrap;html=1;aspect=fixed;" parent="hwpAo5bEhznhClHGtBJG-4" vertex="1">
          <mxGeometry x="4.545454545454546" y="5" width="90.9090909090909" height="90.9090909090909" as="geometry" />
        </mxCell>
        <mxCell id="hwpAo5bEhznhClHGtBJG-9" value="&lt;font style=&quot;font-size: 16px;&quot;&gt;Transformation1, transformation2, etc&amp;nbsp;&lt;/font&gt;" style="text;html=1;strokeColor=none;fillColor=none;align=center;verticalAlign=middle;whiteSpace=wrap;rounded=0;" parent="hwpAo5bEhznhClHGtBJG-12" vertex="1">
          <mxGeometry y="110" width="150" height="30" as="geometry" />
        </mxCell>
        <mxCell id="hwpAo5bEhznhClHGtBJG-18" style="edgeStyle=orthogonalEdgeStyle;rounded=0;orthogonalLoop=1;jettySize=auto;html=1;exitX=0;exitY=0.5;exitDx=0;exitDy=0;entryX=1;entryY=0.5;entryDx=0;entryDy=0;fontSize=16;endArrow=classic;endFill=1;" parent="1" source="hwpAo5bEhznhClHGtBJG-3" target="hwpAo5bEhznhClHGtBJG-8" edge="1">
          <mxGeometry relative="1" as="geometry" />
        </mxCell>
        <mxCell id="hwpAo5bEhznhClHGtBJG-22" value="" style="group" parent="1" connectable="0" vertex="1">
          <mxGeometry x="1130" y="584.77" width="100" height="80" as="geometry" />
        </mxCell>
        <mxCell id="hwpAo5bEhznhClHGtBJG-6" value="" style="shape=cylinder3;whiteSpace=wrap;html=1;boundedLbl=1;backgroundOutline=1;size=15;dashed=1;" parent="hwpAo5bEhznhClHGtBJG-22" vertex="1">
          <mxGeometry width="100" height="80" as="geometry" />
        </mxCell>
        <mxCell id="hwpAo5bEhznhClHGtBJG-13" value="&lt;font size=&quot;1&quot; style=&quot;&quot;&gt;&lt;b style=&quot;font-size: 15px;&quot;&gt;Non available data base 2&lt;/b&gt;&lt;/font&gt;" style="text;html=1;strokeColor=none;fillColor=none;align=center;verticalAlign=middle;whiteSpace=wrap;rounded=0;" parent="hwpAo5bEhznhClHGtBJG-22" vertex="1">
          <mxGeometry y="40" width="100" height="30" as="geometry" />
        </mxCell>
        <mxCell id="hwpAo5bEhznhClHGtBJG-23" value="&lt;b&gt;&lt;font style=&quot;font-size: 20px;&quot;&gt;Your app name - Visualization data map&lt;/font&gt;&lt;/b&gt;" style="rounded=1;whiteSpace=wrap;html=1;fontSize=16;" parent="1" vertex="1">
          <mxGeometry x="620" y="40" width="660" height="60" as="geometry" />
        </mxCell>
        <mxCell id="hwpAo5bEhznhClHGtBJG-28" value="" style="group" parent="1" connectable="0" vertex="1">
          <mxGeometry x="30" y="40" width="320" height="160" as="geometry" />
        </mxCell>
        <mxCell id="hwpAo5bEhznhClHGtBJG-24" value="&lt;b&gt;&lt;font style=&quot;font-size: 12px;&quot;&gt;Legend - Question types&lt;/font&gt;&lt;/b&gt;" style="rounded=1;whiteSpace=wrap;html=1;fontSize=16;" parent="hwpAo5bEhznhClHGtBJG-28" vertex="1">
          <mxGeometry width="320" height="60" as="geometry" />
        </mxCell>
        <mxCell id="hwpAo5bEhznhClHGtBJG-27" value="" style="rounded=0;whiteSpace=wrap;html=1;fontSize=20;" parent="hwpAo5bEhznhClHGtBJG-28" vertex="1">
          <mxGeometry y="53" width="320" height="107" as="geometry" />
        </mxCell>
        <mxCell id="hwpAo5bEhznhClHGtBJG-29" value="&lt;font style=&quot;font-size: 12px;&quot;&gt;Type 1&lt;/font&gt;" style="text;html=1;strokeColor=none;fillColor=none;align=center;verticalAlign=middle;whiteSpace=wrap;rounded=0;fontSize=16;" parent="hwpAo5bEhznhClHGtBJG-28" vertex="1">
          <mxGeometry x="57.6" y="65" width="62.4" height="30" as="geometry" />
        </mxCell>
        <mxCell id="hwpAo5bEhznhClHGtBJG-30" value="&lt;font style=&quot;font-size: 12px;&quot;&gt;Type 2&lt;/font&gt;" style="text;html=1;strokeColor=none;fillColor=none;align=center;verticalAlign=middle;whiteSpace=wrap;rounded=0;fontSize=16;" parent="hwpAo5bEhznhClHGtBJG-28" vertex="1">
          <mxGeometry x="57.599999999999994" y="91.5" width="62.4" height="30" as="geometry" />
        </mxCell>
        <mxCell id="hwpAo5bEhznhClHGtBJG-31" value="&lt;font style=&quot;font-size: 12px;&quot;&gt;Type 3&lt;/font&gt;" style="text;html=1;strokeColor=none;fillColor=none;align=center;verticalAlign=middle;whiteSpace=wrap;rounded=0;fontSize=16;" parent="hwpAo5bEhznhClHGtBJG-28" vertex="1">
          <mxGeometry x="57.599999999999994" y="121.5" width="62.4" height="30" as="geometry" />
        </mxCell>
        <mxCell id="hwpAo5bEhznhClHGtBJG-36" value="&lt;font style=&quot;font-size: 12px;&quot;&gt;Type 4&lt;/font&gt;" style="text;html=1;strokeColor=none;fillColor=none;align=center;verticalAlign=middle;whiteSpace=wrap;rounded=0;fontSize=16;" parent="hwpAo5bEhznhClHGtBJG-28" vertex="1">
          <mxGeometry x="210" y="65" width="62.4" height="30" as="geometry" />
        </mxCell>
        <mxCell id="hwpAo5bEhznhClHGtBJG-37" value="&lt;font style=&quot;font-size: 12px;&quot;&gt;Type 5&lt;/font&gt;" style="text;html=1;strokeColor=none;fillColor=none;align=center;verticalAlign=middle;whiteSpace=wrap;rounded=0;fontSize=16;" parent="hwpAo5bEhznhClHGtBJG-28" vertex="1">
          <mxGeometry x="210" y="91.5" width="62.4" height="30" as="geometry" />
        </mxCell>
        <mxCell id="hwpAo5bEhznhClHGtBJG-39" value="" style="ellipse;shape=cloud;whiteSpace=wrap;html=1;fontSize=12;fillColor=#ffe6cc;strokeColor=#d79b00;" parent="hwpAo5bEhznhClHGtBJG-28" vertex="1">
          <mxGeometry x="20" y="70" width="30" height="20" as="geometry" />
        </mxCell>
        <mxCell id="hwpAo5bEhznhClHGtBJG-40" value="" style="ellipse;shape=cloud;whiteSpace=wrap;html=1;fontSize=12;fillColor=#dae8fc;strokeColor=#6c8ebf;" parent="hwpAo5bEhznhClHGtBJG-28" vertex="1">
          <mxGeometry x="20" y="101.5" width="30" height="20" as="geometry" />
        </mxCell>
        <mxCell id="hwpAo5bEhznhClHGtBJG-41" value="" style="ellipse;shape=cloud;whiteSpace=wrap;html=1;fontSize=12;fillColor=#d5e8d4;strokeColor=#82b366;" parent="hwpAo5bEhznhClHGtBJG-28" vertex="1">
          <mxGeometry x="20" y="131.5" width="30" height="20" as="geometry" />
        </mxCell>
        <mxCell id="hwpAo5bEhznhClHGtBJG-42" value="" style="ellipse;shape=cloud;whiteSpace=wrap;html=1;fontSize=12;fillColor=#f8cecc;strokeColor=#b85450;" parent="hwpAo5bEhznhClHGtBJG-28" vertex="1">
          <mxGeometry x="170" y="70" width="30" height="20" as="geometry" />
        </mxCell>
        <mxCell id="hwpAo5bEhznhClHGtBJG-43" value="" style="ellipse;shape=cloud;whiteSpace=wrap;html=1;fontSize=12;fillColor=#e1d5e7;strokeColor=#9673a6;" parent="hwpAo5bEhznhClHGtBJG-28" vertex="1">
          <mxGeometry x="170" y="96.5" width="30" height="20" as="geometry" />
        </mxCell>
      </root>
    </mxGraphModel>
  </diagram>
</mxfile>
